<mxfile host="65bd71144e">
    <diagram id="8oJw6bzQxYydKL-ssO2G" name="Architecture">
        <mxGraphModel dx="887" dy="820" grid="1" gridSize="10" guides="1" tooltips="1" connect="1" arrows="1" fold="1" page="1" pageScale="1" pageWidth="850" pageHeight="1100" math="0" shadow="0">
            <root>
                <mxCell id="0"/>
                <mxCell id="1" parent="0"/>
                <mxCell id="HAc8jd5VISJPhYInfjR--45" value="" style="rounded=0;whiteSpace=wrap;html=1;fontSize=20;glass=0;shadow=1;sketch=0;" parent="1" vertex="1">
                    <mxGeometry x="100" y="80" width="620" height="800" as="geometry"/>
                </mxCell>
                <mxCell id="HAc8jd5VISJPhYInfjR--26" value="" style="rounded=1;whiteSpace=wrap;html=1;fillColor=#ffe6cc;strokeColor=#d79b00;" parent="1" vertex="1">
                    <mxGeometry x="140" y="730" width="440" height="120" as="geometry"/>
                </mxCell>
                <mxCell id="HAc8jd5VISJPhYInfjR--11" value="" style="rounded=1;whiteSpace=wrap;html=1;fillColor=#dae8fc;strokeColor=#6c8ebf;" parent="1" vertex="1">
                    <mxGeometry x="140" y="420" width="440" height="120" as="geometry"/>
                </mxCell>
                <mxCell id="HAc8jd5VISJPhYInfjR--2" value="" style="rounded=1;whiteSpace=wrap;html=1;fillColor=#f5f5f5;strokeColor=#666666;fontColor=#333333;" parent="1" vertex="1">
                    <mxGeometry x="140" y="110" width="440" height="200" as="geometry"/>
                </mxCell>
                <mxCell id="HAc8jd5VISJPhYInfjR--39" style="edgeStyle=orthogonalEdgeStyle;rounded=0;orthogonalLoop=1;jettySize=auto;html=1;exitX=0;exitY=0.5;exitDx=0;exitDy=0;entryX=0.5;entryY=0;entryDx=0;entryDy=0;startArrow=none;startFill=0;fontSize=20;" parent="1" source="HAc8jd5VISJPhYInfjR--3" target="HAc8jd5VISJPhYInfjR--10" edge="1">
                    <mxGeometry relative="1" as="geometry"/>
                </mxCell>
                <mxCell id="HAc8jd5VISJPhYInfjR--3" value="REST" style="rounded=0;whiteSpace=wrap;html=1;fillColor=#e1d5e7;strokeColor=#9673a6;" parent="1" vertex="1">
                    <mxGeometry x="300" y="230" width="120" height="60" as="geometry"/>
                </mxCell>
                <mxCell id="HAc8jd5VISJPhYInfjR--38" style="edgeStyle=orthogonalEdgeStyle;rounded=0;orthogonalLoop=1;jettySize=auto;html=1;exitX=0;exitY=0.5;exitDx=0;exitDy=0;entryX=0.5;entryY=0;entryDx=0;entryDy=0;startArrow=none;startFill=0;fontSize=20;" parent="1" source="HAc8jd5VISJPhYInfjR--4" target="HAc8jd5VISJPhYInfjR--10" edge="1">
                    <mxGeometry relative="1" as="geometry"/>
                </mxCell>
                <mxCell id="HAc8jd5VISJPhYInfjR--4" value="GraphQL" style="rounded=0;whiteSpace=wrap;html=1;fillColor=#e1d5e7;strokeColor=#9673a6;" parent="1" vertex="1">
                    <mxGeometry x="300" y="160" width="120" height="60" as="geometry"/>
                </mxCell>
                <mxCell id="HAc8jd5VISJPhYInfjR--5" value="Interface Layer" style="text;html=1;strokeColor=none;fillColor=none;align=center;verticalAlign=middle;whiteSpace=wrap;rounded=0;" parent="1" vertex="1">
                    <mxGeometry x="310" y="130" width="100" height="20" as="geometry"/>
                </mxCell>
                <mxCell id="HAc8jd5VISJPhYInfjR--24" style="edgeStyle=orthogonalEdgeStyle;rounded=0;orthogonalLoop=1;jettySize=auto;html=1;exitX=0.5;exitY=1;exitDx=0;exitDy=0;entryX=0.5;entryY=0;entryDx=0;entryDy=0;startArrow=classic;startFill=1;" parent="1" source="HAc8jd5VISJPhYInfjR--7" target="HAc8jd5VISJPhYInfjR--14" edge="1">
                    <mxGeometry relative="1" as="geometry">
                        <Array as="points">
                            <mxPoint x="260" y="560"/>
                            <mxPoint x="360" y="560"/>
                        </Array>
                    </mxGeometry>
                </mxCell>
                <mxCell id="HAc8jd5VISJPhYInfjR--41" style="edgeStyle=orthogonalEdgeStyle;rounded=0;orthogonalLoop=1;jettySize=auto;html=1;exitX=0.75;exitY=0;exitDx=0;exitDy=0;entryX=0.5;entryY=1;entryDx=0;entryDy=0;startArrow=none;startFill=0;fontSize=20;" parent="1" source="HAc8jd5VISJPhYInfjR--7" target="HAc8jd5VISJPhYInfjR--37" edge="1">
                    <mxGeometry relative="1" as="geometry">
                        <Array as="points">
                            <mxPoint x="290" y="410"/>
                            <mxPoint x="480" y="410"/>
                        </Array>
                    </mxGeometry>
                </mxCell>
                <mxCell id="HAc8jd5VISJPhYInfjR--7" value="Use Cases" style="rounded=0;whiteSpace=wrap;html=1;fillColor=#d5e8d4;strokeColor=#82b366;" parent="1" vertex="1">
                    <mxGeometry x="200" y="460" width="120" height="60" as="geometry"/>
                </mxCell>
                <mxCell id="HAc8jd5VISJPhYInfjR--20" style="edgeStyle=orthogonalEdgeStyle;rounded=0;orthogonalLoop=1;jettySize=auto;html=1;exitX=0;exitY=0.5;exitDx=0;exitDy=0;entryX=1;entryY=0.5;entryDx=0;entryDy=0;startArrow=classic;startFill=1;" parent="1" source="HAc8jd5VISJPhYInfjR--8" target="HAc8jd5VISJPhYInfjR--7" edge="1">
                    <mxGeometry relative="1" as="geometry"/>
                </mxCell>
                <mxCell id="HAc8jd5VISJPhYInfjR--25" style="edgeStyle=orthogonalEdgeStyle;rounded=0;orthogonalLoop=1;jettySize=auto;html=1;exitX=0.5;exitY=1;exitDx=0;exitDy=0;entryX=0.5;entryY=0;entryDx=0;entryDy=0;startArrow=classic;startFill=1;" parent="1" source="HAc8jd5VISJPhYInfjR--8" target="HAc8jd5VISJPhYInfjR--14" edge="1">
                    <mxGeometry relative="1" as="geometry">
                        <Array as="points">
                            <mxPoint x="460" y="560"/>
                            <mxPoint x="360" y="560"/>
                        </Array>
                    </mxGeometry>
                </mxCell>
                <mxCell id="HAc8jd5VISJPhYInfjR--8" value="Services" style="rounded=0;whiteSpace=wrap;html=1;fillColor=#d5e8d4;strokeColor=#82b366;" parent="1" vertex="1">
                    <mxGeometry x="400" y="460" width="120" height="60" as="geometry"/>
                </mxCell>
                <mxCell id="HAc8jd5VISJPhYInfjR--19" style="edgeStyle=orthogonalEdgeStyle;rounded=0;orthogonalLoop=1;jettySize=auto;html=1;exitX=0.5;exitY=1;exitDx=0;exitDy=0;entryX=0.25;entryY=0;entryDx=0;entryDy=0;" parent="1" source="HAc8jd5VISJPhYInfjR--10" target="HAc8jd5VISJPhYInfjR--7" edge="1">
                    <mxGeometry relative="1" as="geometry">
                        <Array as="points">
                            <mxPoint x="240" y="410"/>
                            <mxPoint x="230" y="410"/>
                        </Array>
                    </mxGeometry>
                </mxCell>
                <mxCell id="HAc8jd5VISJPhYInfjR--10" value="DTO &lt;br&gt;(Data Transfer Objects)" style="rounded=0;whiteSpace=wrap;html=1;fillColor=#d5e8d4;strokeColor=#82b366;" parent="1" vertex="1">
                    <mxGeometry x="160" y="330" width="160" height="60" as="geometry"/>
                </mxCell>
                <mxCell id="HAc8jd5VISJPhYInfjR--12" value="Business Logic" style="text;html=1;strokeColor=none;fillColor=none;align=center;verticalAlign=middle;whiteSpace=wrap;rounded=0;" parent="1" vertex="1">
                    <mxGeometry x="300" y="430" width="120" height="20" as="geometry"/>
                </mxCell>
                <mxCell id="HAc8jd5VISJPhYInfjR--14" value="" style="rounded=1;whiteSpace=wrap;html=1;fillColor=#ffe6cc;strokeColor=#d79b00;" parent="1" vertex="1">
                    <mxGeometry x="140" y="580" width="440" height="120" as="geometry"/>
                </mxCell>
                <mxCell id="HAc8jd5VISJPhYInfjR--30" style="edgeStyle=orthogonalEdgeStyle;rounded=0;orthogonalLoop=1;jettySize=auto;html=1;exitX=0.5;exitY=1;exitDx=0;exitDy=0;entryX=0.5;entryY=0;entryDx=0;entryDy=0;startArrow=classic;startFill=1;" parent="1" source="HAc8jd5VISJPhYInfjR--15" target="HAc8jd5VISJPhYInfjR--27" edge="1">
                    <mxGeometry relative="1" as="geometry"/>
                </mxCell>
                <mxCell id="HAc8jd5VISJPhYInfjR--15" value="Kysely&lt;br&gt;(Query Builder)" style="rounded=0;whiteSpace=wrap;html=1;fillColor=#b1ddf0;strokeColor=#10739e;" parent="1" vertex="1">
                    <mxGeometry x="200" y="620" width="120" height="60" as="geometry"/>
                </mxCell>
                <mxCell id="HAc8jd5VISJPhYInfjR--17" value="Data Access / Persistence Layer" style="text;html=1;strokeColor=none;fillColor=none;align=center;verticalAlign=middle;whiteSpace=wrap;rounded=0;" parent="1" vertex="1">
                    <mxGeometry x="250" y="590" width="220" height="20" as="geometry"/>
                </mxCell>
                <mxCell id="HAc8jd5VISJPhYInfjR--31" style="edgeStyle=orthogonalEdgeStyle;rounded=0;orthogonalLoop=1;jettySize=auto;html=1;exitX=0.5;exitY=1;exitDx=0;exitDy=0;entryX=0.5;entryY=0;entryDx=0;entryDy=0;startArrow=classic;startFill=1;" parent="1" source="HAc8jd5VISJPhYInfjR--23" target="HAc8jd5VISJPhYInfjR--29" edge="1">
                    <mxGeometry relative="1" as="geometry"/>
                </mxCell>
                <mxCell id="HAc8jd5VISJPhYInfjR--23" value="Redis Client" style="rounded=0;whiteSpace=wrap;html=1;fillColor=#b1ddf0;strokeColor=#10739e;" parent="1" vertex="1">
                    <mxGeometry x="400" y="620" width="120" height="60" as="geometry"/>
                </mxCell>
                <mxCell id="HAc8jd5VISJPhYInfjR--27" value="Postgres" style="rounded=0;whiteSpace=wrap;html=1;fillColor=#b1ddf0;strokeColor=#10739e;" parent="1" vertex="1">
                    <mxGeometry x="200" y="770" width="120" height="60" as="geometry"/>
                </mxCell>
                <mxCell id="HAc8jd5VISJPhYInfjR--28" value="Database Layer" style="text;html=1;strokeColor=none;fillColor=none;align=center;verticalAlign=middle;whiteSpace=wrap;rounded=0;" parent="1" vertex="1">
                    <mxGeometry x="300" y="740" width="120" height="20" as="geometry"/>
                </mxCell>
                <mxCell id="HAc8jd5VISJPhYInfjR--29" value="Redis" style="rounded=0;whiteSpace=wrap;html=1;fillColor=#b1ddf0;strokeColor=#10739e;" parent="1" vertex="1">
                    <mxGeometry x="400" y="770" width="120" height="60" as="geometry"/>
                </mxCell>
                <mxCell id="HAc8jd5VISJPhYInfjR--32" value="" style="rounded=0;whiteSpace=wrap;html=1;fillColor=#dae8fc;strokeColor=#6c8ebf;" parent="1" vertex="1">
                    <mxGeometry x="600" y="110" width="80" height="740" as="geometry"/>
                </mxCell>
                <mxCell id="HAc8jd5VISJPhYInfjR--33" value="prisma-kysely generated types" style="text;html=1;strokeColor=none;fillColor=none;align=center;verticalAlign=middle;whiteSpace=wrap;rounded=0;rotation=270;fontSize=20;" parent="1" vertex="1">
                    <mxGeometry x="380" y="450" width="520" height="20" as="geometry"/>
                </mxCell>
                <mxCell id="HAc8jd5VISJPhYInfjR--42" style="edgeStyle=orthogonalEdgeStyle;rounded=0;orthogonalLoop=1;jettySize=auto;html=1;exitX=0.75;exitY=0;exitDx=0;exitDy=0;entryX=0.5;entryY=1;entryDx=0;entryDy=0;startArrow=none;startFill=0;fontSize=20;" parent="1" source="HAc8jd5VISJPhYInfjR--37" target="HAc8jd5VISJPhYInfjR--40" edge="1">
                    <mxGeometry relative="1" as="geometry"/>
                </mxCell>
                <mxCell id="HAc8jd5VISJPhYInfjR--37" value="Use Case Result" style="rounded=0;whiteSpace=wrap;html=1;fillColor=#d5e8d4;strokeColor=#82b366;" parent="1" vertex="1">
                    <mxGeometry x="400" y="330" width="160" height="60" as="geometry"/>
                </mxCell>
                <mxCell id="HAc8jd5VISJPhYInfjR--43" style="edgeStyle=orthogonalEdgeStyle;rounded=0;orthogonalLoop=1;jettySize=auto;html=1;exitX=0;exitY=0.25;exitDx=0;exitDy=0;entryX=1;entryY=0.5;entryDx=0;entryDy=0;startArrow=none;startFill=0;fontSize=20;" parent="1" source="HAc8jd5VISJPhYInfjR--40" target="HAc8jd5VISJPhYInfjR--4" edge="1">
                    <mxGeometry relative="1" as="geometry"/>
                </mxCell>
                <mxCell id="HAc8jd5VISJPhYInfjR--44" style="edgeStyle=orthogonalEdgeStyle;rounded=0;orthogonalLoop=1;jettySize=auto;html=1;exitX=0;exitY=0.75;exitDx=0;exitDy=0;entryX=1;entryY=0.5;entryDx=0;entryDy=0;startArrow=none;startFill=0;fontSize=20;" parent="1" source="HAc8jd5VISJPhYInfjR--40" target="HAc8jd5VISJPhYInfjR--3" edge="1">
                    <mxGeometry relative="1" as="geometry"/>
                </mxCell>
                <mxCell id="HAc8jd5VISJPhYInfjR--40" value="Factory" style="rounded=0;whiteSpace=wrap;html=1;fillColor=#d5e8d4;strokeColor=#82b366;" parent="1" vertex="1">
                    <mxGeometry x="455" y="210" width="100" height="40" as="geometry"/>
                </mxCell>
            </root>
        </mxGraphModel>
    </diagram>
</mxfile>